<?xml version="1.0" encoding="UTF-8"?>
<svg version="1.1" xmlns="http://www.w3.org/2000/svg" width="64" height="64">
<path d="M0 0 C21.12 0 42.24 0 64 0 C64 21.12 64 42.24 64 64 C42.88 64 21.76 64 0 64 C0 42.88 0 21.76 0 0 Z " fill="#FF7F27" transform="translate(0,0)"/>
<path d="M0 0 C21.12 0 42.24 0 64 0 C64 8.25 64 16.5 64 25 C42.88 25 21.76 25 0 25 C0 16.75 0 8.5 0 0 Z " fill="#ED1C24" transform="translate(0,0)"/>
<path d="M0 0 C21.12 0 42.24 0 64 0 C64 5.94 64 11.88 64 18 C42.88 18 21.76 18 0 18 C0 12.06 0 6.12 0 0 Z " fill="#FFF200" transform="translate(0,46)"/>
</svg>
