<svg width="64.000000pt" height="64.000000pt" viewBox="0 0 64.000000 64.000000" xmlns="http://www.w3.org/2000/svg">
  <g transform="translate(0.000000,64.000000) scale(0.100000,-0.100000)" fill="#ed1c24" stroke="none">
    <path d="M0 508 l0 -133 320 3 320 3 0 129 0 130 -320 0 -320 0 0 -132z" />
  </g>
  <g transform="translate(0.000000,64.000000) scale(0.100000,-0.100000)" fill="#ff7f27" stroke="none">
    <path d="M0 278 l0 -113 320 3 320 3 0 109 0 110 -320 0 -320 0 0 -112z" />
  </g>
  <g transform="translate(0.000000,64.000000) scale(0.100000,-0.100000)" fill="#fff200" stroke="none">
    <path d="M0 90 l0 -90 320 0 320 0 0 90 0 90 -320 0 -320 0 0 -90z" />
  </g>
  <g transform="translate(0.000000,64.000000) scale(0.100000,-0.100000)" fill="#000000" stroke="none" />
  <g transform="translate(0.000000,64.000000) scale(0.100000,-0.100000)" fill="#000000" stroke="none" />
  <g transform="translate(0.000000,64.000000) scale(0.100000,-0.100000)" fill="#000000" stroke="none" />
  <g transform="translate(0.000000,64.000000) scale(0.100000,-0.100000)" fill="#000000" stroke="none" />
  <g transform="translate(0.000000,64.000000) scale(0.100000,-0.100000)" fill="#000000" stroke="none" />
  <g transform="translate(0.000000,64.000000) scale(0.100000,-0.100000)" fill="#000000" stroke="none" />
  <g transform="translate(0.000000,64.000000) scale(0.100000,-0.100000)" fill="#000000" stroke="none" />
  <g transform="translate(0.000000,64.000000) scale(0.100000,-0.100000)" fill="#ffffff" stroke="none" />
  <g transform="translate(0.000000,64.000000) scale(0.100000,-0.100000)" fill="#00ffff" stroke="none" />
  <g transform="translate(0.000000,64.000000) scale(0.100000,-0.100000)" fill="#ff00ff" stroke="none" />
  <g transform="translate(0.000000,64.000000) scale(0.100000,-0.100000)" fill="#0000ff" stroke="none" />
  <g transform="translate(0.000000,64.000000) scale(0.100000,-0.100000)" fill="#ffff00" stroke="none" />
  <g transform="translate(0.000000,64.000000) scale(0.100000,-0.100000)" fill="#00ff00" stroke="none" />
  <g transform="translate(0.000000,64.000000) scale(0.100000,-0.100000)" fill="#ff0000" stroke="none" />
  <g transform="translate(0.000000,64.000000) scale(0.100000,-0.100000)" fill="#c0c0c0" stroke="none" />
  <g transform="translate(0.000000,64.000000) scale(0.100000,-0.100000)" fill="#808080" stroke="none" />
  <g transform="translate(0.000000,64.000000) scale(0.100000,-0.100000)" fill="#008080" stroke="none" />
  <g transform="translate(0.000000,64.000000) scale(0.100000,-0.100000)" fill="#800080" stroke="none" />
  <g transform="translate(0.000000,64.000000) scale(0.100000,-0.100000)" fill="#000080" stroke="none" />
  <g transform="translate(0.000000,64.000000) scale(0.100000,-0.100000)" fill="#808000" stroke="none" />
  <g transform="translate(0.000000,64.000000) scale(0.100000,-0.100000)" fill="#000000" stroke="none" />
  <g transform="translate(0.000000,64.000000) scale(0.100000,-0.100000)" fill="#000000" stroke="none" />
</svg>